HIERARCHY
ROOT Hips
{
    OFFSET   0.000000   0.000000   0.000000
    CHANNELS 6 Xposition Yposition Zposition Zrotation Xrotation Yrotation
    JOINT Chest
    {
        OFFSET   0.000000   8.007230   0.000000
        CHANNELS 3 Zrotation Xrotation Yrotation
        JOINT Chest2
        {
            OFFSET   0.000000  22.077100   0.000000
            CHANNELS 3 Zrotation Xrotation Yrotation
            JOINT Neck
            {
                OFFSET   0.000000  23.255100   0.000000
                CHANNELS 3 Zrotation Xrotation Yrotation
                JOINT Head
                {
                    OFFSET   0.000000  14.370100   1.956600
                    CHANNELS 3 Zrotation Xrotation Yrotation
                    End Site
                    {
                        OFFSET   0.000000  19.566000   0.000000
                    }
                }
            }
            JOINT LeftCollar
            {
                OFFSET   3.911900  19.017000  -0.467063
                CHANNELS 3 Zrotation Xrotation Yrotation
                JOINT LeftShoulder
                {
                    OFFSET  10.383700   0.000000   0.000000
                    CHANNELS 3 Zrotation Xrotation Yrotation
                    JOINT LeftElbow
                    {
                        OFFSET  26.662100   0.001193   0.000980
                        CHANNELS 3 Zrotation Xrotation Yrotation
                        JOINT LeftWrist
                        {
                            OFFSET  28.869000  -0.000059  -0.000082
                            CHANNELS 3 Zrotation Xrotation Yrotation
                            JOINT LeftFinger0
                            {
                                OFFSET   2.044650  -2.323450   3.252850
                                CHANNELS 3 Zrotation Xrotation Yrotation
                                JOINT LeftFinger01
                                {
                                    OFFSET   3.088130   0.000000   0.000000
                                    CHANNELS 3 Zrotation Xrotation Yrotation
                                    JOINT LeftFinger02
                                    {
                                        OFFSET   2.639460   0.000000   0.000000
                                        CHANNELS 3 Zrotation Xrotation Yrotation
                                        End Site
                                        {
                                            OFFSET   2.582190   0.000000   0.000000
                                        }
                                    }
                                }
                            }
                            JOINT LeftFinger1
                            {
                                OFFSET   8.364480   0.000000   3.252850
                                CHANNELS 3 Zrotation Xrotation Yrotation
                                JOINT LeftFinger11
                                {
                                    OFFSET   4.646930   0.000000   0.000000
                                    CHANNELS 3 Zrotation Xrotation Yrotation
                                    JOINT LeftFinger12
                                    {
                                        OFFSET   2.323470   0.000000   0.000000
                                        CHANNELS 3 Zrotation Xrotation Yrotation
                                        End Site
                                        {
                                            OFFSET   2.273050   0.000000   0.000000
                                        }
                                    }
                                }
                            }
                            JOINT LeftFinger2
                            {
                                OFFSET   8.364490   0.000016   1.078090
                                CHANNELS 3 Zrotation Xrotation Yrotation
                                JOINT LeftFinger21
                                {
                                    OFFSET   5.111610   0.000000   0.000000
                                    CHANNELS 3 Zrotation Xrotation Yrotation
                                    JOINT LeftFinger22
                                    {
                                        OFFSET   2.788150   0.000016   0.000000
                                        CHANNELS 3 Zrotation Xrotation Yrotation
                                        End Site
                                        {
                                            OFFSET   2.727660   0.000000   0.000000
                                        }
                                    }
                                }
                            }
                            JOINT LeftFinger3
                            {
                                OFFSET   7.899780   0.000015  -1.078090
                                CHANNELS 3 Zrotation Xrotation Yrotation
                                JOINT LeftFinger31
                                {
                                    OFFSET   4.646930   0.000000   0.000000
                                    CHANNELS 3 Zrotation Xrotation Yrotation
                                    JOINT LeftFinger32
                                    {
                                        OFFSET   2.323470   0.000000   0.000000
                                        CHANNELS 3 Zrotation Xrotation Yrotation
                                        End Site
                                        {
                                            OFFSET   2.273050   0.000000   0.000000
                                        }
                                    }
                                }
                            }
                            JOINT LeftFinger4
                            {
                                OFFSET   7.435090   0.000000  -3.252850
                                CHANNELS 3 Zrotation Xrotation Yrotation
                                JOINT LeftFinger41
                                {
                                    OFFSET   3.717550   0.000000   0.000000
                                    CHANNELS 3 Zrotation Xrotation Yrotation
                                    JOINT LeftFinger42
                                    {
                                        OFFSET   1.858770   0.000000   0.000000
                                        CHANNELS 3 Zrotation Xrotation Yrotation
                                        End Site
                                        {
                                            OFFSET   1.818440   0.000000   0.000000
                                        }
                                    }
                                }
                            }
                        }
                    }
                }
            }
            JOINT RightCollar
            {
                OFFSET  -3.911910  19.017000  -0.467062
                CHANNELS 3 Zrotation Xrotation Yrotation
                JOINT RightShoulder
                {
                    OFFSET -10.383700   0.000014   0.000000
                    CHANNELS 3 Zrotation Xrotation Yrotation
                    JOINT RightElbow
                    {
                        OFFSET -26.662100   0.001225   0.001091
                        CHANNELS 3 Zrotation Xrotation Yrotation
                        JOINT RightWrist
                        {
                            OFFSET -28.869000  -0.000020  -0.000085
                            CHANNELS 3 Zrotation Xrotation Yrotation
                            JOINT RightFinger0
                            {
                                OFFSET  -2.044650  -2.323490   3.252850
                                CHANNELS 3 Zrotation Xrotation Yrotation
                                JOINT RightFinger01
                                {
                                    OFFSET  -3.088130   0.000000   0.000000
                                    CHANNELS 3 Zrotation Xrotation Yrotation
                                    JOINT RightFinger02
                                    {
                                        OFFSET  -2.639460   0.000000   0.000000
                                        CHANNELS 3 Zrotation Xrotation Yrotation
                                        End Site
                                        {
                                            OFFSET  -2.582190   0.000000   0.000000
                                        }
                                    }
                                }
                            }
                            JOINT RightFinger1
                            {
                                OFFSET  -8.364480   0.000000   3.252850
                                CHANNELS 3 Zrotation Xrotation Yrotation
                                JOINT RightFinger11
                                {
                                    OFFSET  -4.646930   0.000000   0.000000
                                    CHANNELS 3 Zrotation Xrotation Yrotation
                                    JOINT RightFinger12
                                    {
                                        OFFSET  -2.323470   0.000000   0.000000
                                        CHANNELS 3 Zrotation Xrotation Yrotation
                                        End Site
                                        {
                                            OFFSET  -2.273050   0.000000   0.000000
                                        }
                                    }
                                }
                            }
                            JOINT RightFinger2
                            {
                                OFFSET  -8.364480   0.000000   1.078090
                                CHANNELS 3 Zrotation Xrotation Yrotation
                                JOINT RightFinger21
                                {
                                    OFFSET  -5.111620   0.000000   0.000000
                                    CHANNELS 3 Zrotation Xrotation Yrotation
                                    JOINT RightFinger22
                                    {
                                        OFFSET  -2.788160   0.000000   0.000000
                                        CHANNELS 3 Zrotation Xrotation Yrotation
                                        End Site
                                        {
                                            OFFSET  -2.727660   0.000000   0.000000
                                        }
                                    }
                                }
                            }
                            JOINT RightFinger3
                            {
                                OFFSET  -7.899780   0.000000  -1.078090
                                CHANNELS 3 Zrotation Xrotation Yrotation
                                JOINT RightFinger31
                                {
                                    OFFSET  -4.646930   0.000000   0.000000
                                    CHANNELS 3 Zrotation Xrotation Yrotation
                                    JOINT RightFinger32
                                    {
                                        OFFSET  -2.323470   0.000000   0.000000
                                        CHANNELS 3 Zrotation Xrotation Yrotation
                                        End Site
                                        {
                                            OFFSET  -2.273050   0.000000   0.000000
                                        }
                                    }
                                }
                            }
                            JOINT RightFinger4
                            {
                                OFFSET  -7.435090   0.000000  -3.252850
                                CHANNELS 3 Zrotation Xrotation Yrotation
                                JOINT RightFinger41
                                {
                                    OFFSET  -3.717550   0.000000   0.000000
                                    CHANNELS 3 Zrotation Xrotation Yrotation
                                    JOINT RightFinger42
                                    {
                                        OFFSET  -1.858760   0.000000   0.000000
                                        CHANNELS 3 Zrotation Xrotation Yrotation
                                        End Site
                                        {
                                            OFFSET  -1.818440   0.000000   0.000000
                                        }
                                    }
                                }
                            }
                        }
                    }
                }
            }
        }
    }
    JOINT LeftHip
    {
        OFFSET   9.783030   0.000000   0.000000
        CHANNELS 3 Zrotation Xrotation Yrotation
        JOINT LeftKnee
        {
            OFFSET   0.000063 -41.789100   0.000608
            CHANNELS 3 Zrotation Xrotation Yrotation
            JOINT LeftAnkle
            {
                OFFSET   0.000048 -41.133200  -0.000184
                CHANNELS 3 Zrotation Xrotation Yrotation
                JOINT LeftToe
                {
                    OFFSET   0.000000  -6.358960  14.674500
                    CHANNELS 3 Zrotation Xrotation Yrotation
                    End Site
                    {
                        OFFSET   0.000000   0.000000   3.913200
                    }
                }
            }
        }
    }
    JOINT RightHip
    {
        OFFSET  -9.783030   0.000000   0.000000
        CHANNELS 3 Zrotation Xrotation Yrotation
        JOINT RightKnee
        {
            OFFSET   0.000071 -41.789100   0.001239
            CHANNELS 3 Zrotation Xrotation Yrotation
            JOINT RightAnkle
            {
                OFFSET   0.000037 -41.133200  -0.000166
                CHANNELS 3 Zrotation Xrotation Yrotation
                JOINT RightToe
                {
                    OFFSET   0.000000  -6.358960  14.674500
                    CHANNELS 3 Zrotation Xrotation Yrotation
                    End Site
                    {
                        OFFSET   0.000000   0.000000   3.913200
                    }
                }
            }
        }
    }
}
MOTION
Frames: 4
Frame Time:   0.016667
  0.559090  90.069200  -0.194131  -0.786428  -2.311070  -4.508290   0.062258   2.577940  -1.071620   0.173089   5.154250  -2.149310   1.762100   0.872184  -0.031810   2.897690   1.763020   8.169420  -3.320330  -0.068735   6.162740 -72.113800  17.320900   1.554880  -4.022650  -4.934190 -15.787800  14.480100  -1.484460   6.379960  42.519700  34.216400 -74.910100 -14.878300   0.004290   0.006042  -2.439160   0.003018   0.002472 -26.518000   8.065720 -15.705800 -22.608200  -0.004731  -0.000125 -15.819100  -0.008892  -0.003491 -28.393900   0.529945  -0.980548 -35.029400   0.000088   0.001176 -23.329600  -0.004025  -0.007552 -26.995000   0.505959  -0.993138 -26.993900   0.000587   0.001366 -17.977900  -0.003831  -0.001797 -25.834800  -0.952925   1.967290 -38.776700   0.000806   0.002157 -25.825300  -0.010343  -0.005604   8.785300   2.887230   6.538330  67.641100   6.817270  -0.434496   2.855550  -7.409090   9.341510 -15.365500 -14.287500  -6.418270 -44.489800  34.934600  69.174400  24.104100   0.001211  -0.010153   7.052020   0.005379  -0.001521  27.389500   1.406120   2.708490  22.436800   0.007179  -0.000845  15.705800   0.003002  -0.013394  24.284200  -1.733680  -3.850070  24.342300   0.002328  -0.005527  16.212000   0.003007  -0.003884  24.190600  -2.880400  -6.382740  24.351200   0.008281   0.000382  16.217900   0.003617   0.000265  28.207100  -3.741740  -6.941750  42.651600  -0.001592   0.003268  28.405900  -0.004299   0.001687   0.876761   4.152010   4.014670   0.015251   0.391079  19.561400  -5.229600  -3.784850   5.887010  -0.000000   0.000000   0.000000   0.176492   3.773650  -6.803710   0.318877   1.135610  -7.067880  -8.915510   1.097600   2.742150  -0.000000   0.000000   0.000000
  0.555030  90.069100  -0.194133  -0.786836  -2.321670  -4.499210   0.058294   2.578050  -1.068520   0.165009   5.154550  -2.142890   1.762130   0.908032  -0.031660   2.899020   1.835650   8.174660  -3.330540  -0.055506   6.147010 -72.118700  17.326100   1.554450  -4.023710  -4.965200 -15.779200  14.493100  -1.491160   6.361060  42.525900  34.220700 -74.908100 -14.878800   0.004281   0.006059  -2.439410   0.003015   0.002465 -26.515300   8.069660 -15.717300 -22.606700  -0.004740  -0.000120 -15.819700  -0.008898  -0.003493 -28.393800   0.538906  -0.997109 -35.033500   0.000096   0.001178 -23.332300  -0.004030  -0.007555 -26.995700   0.514531  -1.009910 -26.999400   0.000593   0.001373 -17.981600  -0.003835  -0.001802 -25.841200  -0.946610   1.953710 -38.785900   0.000814   0.002161 -25.831500  -0.010344  -0.005608   8.794910   2.874730   6.526080  67.636700   6.840810  -0.452329   2.857020  -7.427310   9.328510 -15.345700 -14.264000  -6.420260 -44.471000  34.925100  69.162700  24.111500   0.001202  -0.010158   7.055730   0.005374  -0.001522  27.363100   1.406120   2.713100  22.415200   0.007178  -0.000843  15.690600   0.003001  -0.013392  24.270900  -1.733690  -3.845710  24.329500   0.002324  -0.005527  16.203400   0.003003  -0.003884  24.183200  -2.876310  -6.375960  24.343400   0.008275   0.000389  16.212800   0.003617   0.000269  28.200700  -3.741710  -6.941750  42.641800  -0.001591   0.003269  28.399400  -0.004295   0.001696   0.879829   4.152200   4.014510   0.015245   0.405693  19.561500  -5.236060  -3.781470   5.879910  -0.000000   0.000000   0.000000   0.176751   3.776920  -6.802130   0.319026   1.134840  -7.077050  -8.915610   1.099380   2.742240   0.000000   0.000000   0.000000
  0.548346  90.069100  -0.194150  -0.787673  -2.341760  -4.483480   0.052662   2.578160  -1.061340   0.153407   5.154880  -2.128260   1.762180   0.973053  -0.031511   2.897170   1.967330   8.187560  -3.346580  -0.033751   6.121270 -72.129900  17.333600   1.554020  -4.023320  -5.013530 -15.771000  14.506600  -1.506730   6.326530  42.536300  34.225900 -74.908600 -14.882400   0.004273   0.006079  -2.441180   0.003003   0.002455 -26.510400   8.079170 -15.735400 -22.605300  -0.004765  -0.000099 -15.823700  -0.008914  -0.003508 -28.393600   0.553122  -1.023360 -35.045300   0.000116   0.001185 -23.340200  -0.004042  -0.007563 -26.998300   0.528141  -1.036480 -27.012000   0.000607   0.001390 -17.990000  -0.003843  -0.001818 -25.855800  -0.931178   1.920670 -38.807000   0.000834   0.002176 -25.845500  -0.010347  -0.005621   8.806570   2.847870   6.505450  67.632500   6.878450  -0.482080   2.860450  -7.472750   9.297010 -15.317700 -14.225100  -6.424680 -44.440900  34.903700  69.148500  24.137900   0.001185  -0.010175   7.068960   0.005353  -0.001524  27.336600   1.406110   2.717710  22.393600   0.007176  -0.000840  15.675500   0.003001  -0.013387  24.255400  -1.733700  -3.841360  24.313600   0.002308  -0.005525  16.192800   0.002994  -0.003881  24.175800  -2.872230  -6.369190  24.335700   0.008259   0.000407  16.207600   0.003617   0.000282  28.194400  -3.741690  -6.941750  42.632000  -0.001585   0.003274  28.392900  -0.004282   0.001717   0.885530   4.153580   4.014360   0.016974   0.420308  19.561400  -5.247020  -3.775270   5.868410  -0.000000   0.000000  -0.000000   0.179009   3.799780  -6.797760   0.319120   1.129500  -7.093450  -8.915760   1.101150   2.742330   0.000000   0.000000   0.000000
  0.543115  90.069100  -0.194279  -0.788577  -2.362350  -4.468680   0.050070   2.577800  -1.050810   0.147856   5.154220  -2.107070   1.757170   1.035510  -0.032204   2.887510   2.093670   8.201860  -3.356100  -0.015466   6.102010 -72.145000  17.337200   1.555230  -4.019550  -5.044490 -15.784600  14.508400  -1.533820   6.290300  42.527600  34.231800 -74.923900 -14.891400   0.004281   0.006080  -2.445670   0.002980   0.002446 -26.531900   8.097530 -15.750700 -22.625000  -0.004803  -0.000052 -15.839300  -0.008936  -0.003553 -28.393200   0.565178  -1.045560 -35.072400   0.000148   0.001199 -23.358200  -0.004059  -0.007582 -27.004700   0.539727  -1.058930 -27.034700   0.000628   0.001416 -18.005100  -0.003855  -0.001850 -25.881800  -0.902927   1.860330 -38.844600   0.000859   0.002202 -25.870500  -0.010348  -0.005641   8.811180   2.811120   6.488380  67.634600   6.906920  -0.511903   2.865450  -7.543670   9.255050 -15.310900 -14.197400  -6.430740 -44.400900  34.871500  69.145700  24.187700   0.001167  -0.010210   7.093870   0.005313  -0.001489  27.339000   1.401790   2.709200  22.395400   0.007168  -0.000837  15.679500   0.003000  -0.013375  24.251900  -1.740920  -3.857880  24.309800   0.002280  -0.005519  16.190300   0.002981  -0.003876  24.184000  -2.881990  -6.388220  24.344900   0.008236   0.000434  16.213700   0.003618   0.000306  28.211500  -3.741740  -6.935190  42.657400  -0.001571   0.003287  28.409800  -0.004260   0.001744   0.890539   4.167030   4.016270   0.019219   0.419816  19.555600  -5.256560  -3.769850   5.860450   0.000000   0.000000  -0.000000   0.183221   4.065380  -6.791440   0.349214   0.892730  -7.108710  -8.919320   1.101060   2.742140   0.000000   0.000000  -0.000000
